<svg width="166" height="61" viewBox="0 0 166 61" fill="none" xmlns="http://www.w3.org/2000/svg">
<rect y="0.0515137" width="166" height="60" rx="30" fill="#4FC0FF"/>
<path d="M128.004 16.3373C128.454 16.3924 128.906 16.4385 129.354 16.507C132.167 16.9341 134.287 18.3958 135.764 20.816C135.81 20.8919 135.855 20.9663 135.929 21.0914C136.102 20.4409 136.262 19.8411 136.421 19.2397C136.525 18.8453 136.625 18.4494 136.73 18.0549C136.904 17.4045 137.385 17.0279 138.056 17.0264C140.284 17.0235 142.513 17.0235 144.744 17.0264C145.536 17.0279 145.955 17.5608 145.755 18.3348C145.596 18.951 145.437 19.5657 145.278 20.1819C145.176 20.5808 145.072 20.9797 144.969 21.3786C144.865 21.779 144.761 22.1794 144.659 22.5783C144.565 22.9385 144.472 23.2987 144.378 23.6589C144.284 24.0191 144.191 24.3793 144.099 24.7395C143.843 25.7264 143.589 26.7117 143.335 27.6986C143.267 27.965 143.228 28.2463 143.228 28.5217C143.228 28.9994 143.226 29.4772 143.226 29.9535C143.226 30.3346 143.226 30.7156 143.226 31.0967C143.226 31.4747 143.226 31.8528 143.226 32.2309C143.226 32.7027 143.226 33.173 143.228 33.6449C143.228 34.3117 143.229 34.98 143.231 35.6468C143.232 36.391 143.232 37.1353 143.234 37.8795C143.235 38.7324 142.715 39.2727 141.868 39.2756C139.619 39.2816 137.371 39.2801 135.121 39.2756C134.409 39.2742 134.041 38.8961 134.038 38.1802C134.035 37.2037 134.036 36.2288 134.036 35.1854C133.925 35.3089 133.849 35.3908 133.775 35.4757C132.018 37.4806 129.904 38.9273 127.295 39.5689C125.169 40.0913 123.032 40.1166 120.932 39.4528C117.989 38.5225 116.14 36.5027 115.293 33.5496C114.836 31.954 114.806 30.3242 114.992 28.6899C115.244 26.4706 115.849 24.3555 117.007 22.428C118.793 19.4541 121.33 17.473 124.73 16.6781C125.394 16.5233 126.085 16.4817 126.764 16.3879C126.859 16.3745 126.955 16.3551 127.05 16.3373C127.366 16.3373 127.686 16.3373 128.004 16.3373ZM123.88 28.7018C123.859 30.4864 124.426 31.7054 125.486 32.466C126.552 33.2296 127.757 33.365 128.993 33.109C131.674 32.5568 133.604 30.9761 134.922 28.605C135.088 28.3043 135.109 27.9843 135.02 27.6509C134.66 26.3069 133.934 25.2039 132.852 24.3362C131.072 22.9102 128.65 22.6721 126.79 23.7735C124.8 24.9509 123.969 26.7951 123.88 28.7018Z" fill="#192024"/>
<path d="M62.1535 46.368C61.7508 46.3308 61.3496 46.2891 60.9469 46.2563C58.8132 46.0852 56.8815 45.3737 55.1594 44.0921C54.782 43.8108 54.6423 43.464 54.727 43.0011C54.9365 41.855 55.1475 40.7104 55.3273 39.5584C55.4536 38.7427 56.4685 38.1161 57.3184 38.6177C59.204 39.7295 61.2723 40.0912 63.4388 39.8486C65.0955 39.6625 66.3882 38.8365 67.3451 37.4775C67.5026 37.2543 67.6497 37.0235 67.837 36.7452C67.1119 36.7452 66.4581 36.7452 65.8043 36.7452C65.4061 36.7452 65.0078 36.7467 64.6096 36.7452C64.0658 36.7422 63.782 36.5353 63.6304 36.0114C62.4997 32.0715 61.3704 28.1301 60.2411 24.1887C59.7315 22.41 59.2218 20.6299 58.7107 18.8512C58.4165 17.8301 59.0138 17.0248 60.0732 17.0248C62.3719 17.0234 64.672 17.0234 66.9707 17.0248C67.5963 17.0248 67.8786 17.2526 68.0182 17.8614C69.0093 22.1897 69.9974 26.5166 70.9885 30.845C71.0034 30.9105 71.0257 30.9745 71.0569 31.0891C71.1312 30.9701 71.1847 30.8927 71.2307 30.8108C73.6973 26.5003 76.1668 22.1912 78.626 17.8762C78.9618 17.2868 79.4194 17.0129 80.1029 17.0189C82.2233 17.0368 84.3422 17.0293 86.4625 17.0234C86.883 17.0219 87.2708 17.0769 87.4863 17.4878C87.7136 17.9194 87.6096 18.3302 87.36 18.7276C84.4655 23.3626 81.574 28.0006 78.6809 32.6371C77.1728 35.0528 75.6824 37.479 74.1445 39.8739C72.7642 42.0232 70.9707 43.7498 68.6854 44.9301C67.042 45.7786 65.2842 46.1968 63.4492 46.3189C63.3541 46.3248 63.2619 46.3531 63.1668 46.3695C62.8295 46.368 62.4908 46.368 62.1535 46.368Z" fill="#192024"/>
<path d="M95.1267 31.18C94.9588 32.2635 94.7954 33.3352 94.6275 34.4054C94.4328 35.6542 94.2456 36.906 94.039 38.1533C93.9306 38.8127 93.4224 39.2696 92.7597 39.2741C90.5502 39.2875 88.3407 39.2875 86.1312 39.2741C85.4655 39.2696 85.1 38.7844 85.2055 38.0953C85.3808 36.9432 85.571 35.7941 85.7538 34.6436C86.2664 31.4181 86.779 28.1927 87.2917 24.9672C87.6512 22.7063 88.0078 20.4438 88.3704 18.1829C88.4818 17.4923 89.0212 17.0308 89.7211 17.0293C91.8607 17.0249 94.0004 17.0249 96.1401 17.0293C96.8474 17.0308 97.2352 17.4833 97.1282 18.2067C96.9321 19.5463 96.7166 20.8844 96.5101 22.2225C96.3927 22.9801 96.2768 23.7363 96.1535 24.5311C96.2813 24.537 96.3853 24.546 96.4893 24.546C99.3555 24.546 102.222 24.543 105.088 24.5519C105.336 24.5534 105.418 24.4924 105.455 24.2334C105.737 22.2419 106.044 20.2533 106.341 18.2648C106.457 17.4863 106.98 17.0308 107.77 17.0293C109.85 17.0279 111.931 17.0279 114.011 17.0293C114.843 17.0293 115.219 17.4461 115.104 18.2796C114.929 19.5627 114.733 20.8412 114.547 22.1228C114.177 24.6755 113.809 27.2281 113.437 29.7793C113.091 32.1638 112.743 34.5498 112.397 36.9343C112.345 37.2885 112.289 37.6428 112.244 37.9985C112.142 38.8008 111.626 39.2801 110.827 39.2815C108.687 39.286 106.547 39.2875 104.408 39.2815C103.648 39.2801 103.272 38.8067 103.387 38.0491C103.726 35.8045 104.058 33.5585 104.393 31.3124C104.399 31.2752 104.393 31.2365 104.393 31.1844C101.308 31.18 98.2263 31.18 95.1267 31.18Z" fill="#192024"/>
<path d="M47.4493 23.6009C45.008 23.6009 42.5741 23.6009 40.112 23.6009C40.0333 24.1963 39.962 24.7872 39.8773 25.3751C39.4701 28.221 38.8847 31.0222 37.7168 33.6672C37.0169 35.2509 36.1106 36.6917 34.748 37.7991C33.4449 38.8574 31.9293 39.3858 30.2903 39.6552C26.8268 40.2253 25.274 39.6612 24.0214 38.6862C23.8654 38.5642 23.7109 38.3528 23.7881 37.9301C24.0496 36.5012 24.3126 35.0708 24.6068 33.6479C24.7495 32.9602 25.485 32.5464 26.1878 32.6402C26.7257 32.7131 27.277 32.7712 27.8149 32.7325C28.7302 32.667 29.4374 32.1802 29.9768 31.4479C30.6737 30.5013 31.0303 29.4028 31.3379 28.2865C31.8713 26.3426 32.1655 24.3525 32.4077 22.3551C32.5727 20.9902 32.693 19.6208 32.8386 18.2544C32.91 17.5906 33.4687 17.0651 34.1358 17.0249C34.2146 17.0205 34.2948 17.022 34.375 17.022C41.6202 17.022 48.8639 17.022 56.1091 17.0235C56.277 17.0235 56.4508 17.0249 56.6113 17.0681C57.0541 17.1857 57.3111 17.6337 57.225 18.1249C56.907 19.9378 56.5845 21.7507 56.2651 23.5652C55.638 27.124 55.011 30.6829 54.3839 34.2403C54.1536 35.5441 53.9263 36.848 53.6826 38.1489C53.5578 38.8142 53.0392 39.2667 52.3631 39.2712C50.164 39.2831 47.9649 39.2846 45.7658 39.2712C45.0927 39.2667 44.7242 38.7785 44.8461 38.0998C45.1254 36.5325 45.4152 34.9666 45.7004 33.3993C46.2844 30.1872 46.8669 26.9752 47.4493 23.7631C47.4568 23.7155 47.4493 23.6664 47.4493 23.6009Z" fill="#192024"/>
<path d="M24.0218 38.686L28.1258 32.7277L15.9386 30.2361C15.3308 30.2361 15.1926 31.1262 15.7692 31.3271L24.0218 38.686Z" fill="#192024"/>
<path d="M32.8205 33.4764L33.816 28.2415L22.9825 26.7903C22.3851 26.7903 22.2484 27.6298 22.816 27.8188L32.8205 33.4764Z" fill="#192024"/>
<path d="M35.2942 27.7296L36.006 23.9862L28.2571 22.9487C27.8292 22.9487 27.7326 23.5486 28.1382 23.684L35.2942 27.7296Z" fill="#192024"/>
</svg>
