<svg width="89" height="33" viewBox="0 0 89 33" fill="none" xmlns="http://www.w3.org/2000/svg">
<rect x="4" y="2" width="85" height="29" rx="10" fill="#FFFF97"/>
<rect x="0.5" y="-0.5" width="84" height="28" rx="9.5" transform="matrix(1 0 0 -1 4 30)" stroke="#263036"/>
<g clip-path="url(#clip0_3856_649)">
<path d="M16.7026 32.8052C25.1689 32.8052 32.0322 25.618 32.0322 16.7522C32.0322 7.88639 25.1689 0.699219 16.7026 0.699219C8.23632 0.699219 1.37305 7.88639 1.37305 16.7522C1.37305 25.618 8.23632 32.8052 16.7026 32.8052Z" fill="url(#paint0_linear_3856_649)"/>
<path d="M15.3322 32.1071C23.7977 32.1071 30.6604 24.9206 30.6604 16.0555C30.6604 7.19046 23.7977 0.00390625 15.3322 0.00390625C6.8666 0.00390625 0.00390625 7.19046 0.00390625 16.0555C0.00390625 24.9206 6.8666 32.1071 15.3322 32.1071Z" fill="#FFFF97"/>
<path d="M15.6213 3.44269C17.8406 3.44269 20.0128 4.09092 21.9039 5.31794C23.845 6.57726 25.3909 8.38995 26.3749 10.5601C27.0635 12.0793 27.4475 13.694 27.5157 15.3596C27.582 16.9681 27.3523 18.5567 26.8337 20.0807C26.3151 21.6047 25.534 22.987 24.5113 24.19C23.4524 25.4349 22.1803 26.4316 20.7296 27.1527C19.1194 27.9528 17.4067 28.3584 15.6383 28.3584C13.4189 28.3584 11.2462 27.7102 9.355 26.4832C7.41394 25.2238 5.86805 23.4112 4.88407 21.2403C4.19548 19.7212 3.81147 18.1064 3.7432 16.4409C3.6769 14.8323 3.90665 13.2437 4.42523 11.7198C4.9438 10.1958 5.72495 8.8134 6.74767 7.61044C7.80649 6.36554 9.07864 5.3688 10.5293 4.64772C12.1396 3.84757 13.8522 3.44201 15.6206 3.44201M15.6206 3.05225C13.8581 3.05225 12.068 3.45163 10.3698 4.29576C4.24996 7.33822 1.64329 15.0001 4.54798 21.4087C6.64658 26.0391 11.0486 28.7496 15.6377 28.7496C17.4002 28.7496 19.1903 28.3502 20.8884 27.506C27.0083 24.4643 29.615 16.8031 26.7109 10.3944C24.6124 5.76406 20.2103 3.05362 15.6213 3.05362L15.6206 3.05225Z" fill="url(#paint1_linear_3856_649)"/>
<path d="M15.0253 28.4841C21.4618 28.4841 26.6795 23.0201 26.6795 16.2799C26.6795 9.53969 21.4618 4.07568 15.0253 4.07568C8.58887 4.07568 3.37109 9.53969 3.37109 16.2799C3.37109 23.0201 8.58887 28.4841 15.0253 28.4841Z" fill="url(#paint2_linear_3856_649)" stroke="url(#paint3_linear_3856_649)" stroke-miterlimit="10"/>
<path d="M9.05748 21.434C8.95245 21.434 8.86843 21.3962 8.80672 21.3212C8.74436 21.2463 8.7227 21.1535 8.74239 21.0435L10.7347 11.3167C10.7537 11.2067 10.8062 11.1139 10.8922 11.039C10.9782 10.9641 11.0734 10.9263 11.1791 10.9263H13.0853C13.2573 10.9263 13.3794 10.9765 13.4509 11.0761C13.5225 11.1765 13.5632 11.2466 13.573 11.2865L15.0349 15.4597L18.1739 11.2865C18.212 11.2466 18.2836 11.1765 18.3893 11.0761C18.4943 10.9765 18.6328 10.9263 18.8048 10.9263H20.7117C20.8167 10.9263 20.8981 10.9641 20.9552 11.039C21.0123 11.1139 21.0314 11.2067 21.0123 11.3167L19.0345 21.0435C19.0155 21.1535 18.963 21.2463 18.877 21.3212C18.791 21.3962 18.6952 21.434 18.5901 21.434H16.4259C16.3209 21.434 16.2395 21.3962 16.1823 21.3212C16.1246 21.2463 16.1055 21.1535 16.1246 21.0435L17.0994 16.2248L15.3651 18.5517C15.2981 18.6321 15.2167 18.7118 15.1216 18.7916C15.0257 18.872 14.9108 18.9119 14.7776 18.9119H13.9032C13.7693 18.9119 13.6715 18.872 13.6091 18.7916C13.5468 18.7118 13.5015 18.6314 13.4733 18.5517L12.6416 16.1499L11.6523 21.0435C11.6333 21.1535 11.5808 21.2463 11.4948 21.3212C11.4088 21.3962 11.313 21.434 11.2079 21.434H9.05814H9.05748Z" fill="#FFFF97"/>
<path d="M22.9125 14.6343H6.80243C6.71361 14.6343 6.6416 14.7097 6.6416 14.8027V17.4231C6.6416 17.5161 6.71361 17.5915 6.80243 17.5915H22.9125C23.0013 17.5915 23.0733 17.5161 23.0733 17.4231V14.8027C23.0733 14.7097 23.0013 14.6343 22.9125 14.6343Z" fill="#FFFF97"/>
</g>
<defs>
<linearGradient id="paint0_linear_3856_649" x1="21.2863" y1="1.42858" x2="11.3208" y2="31.814" gradientUnits="userSpaceOnUse">
<stop stop-color="#759AB0"/>
<stop offset="0.3" stop-color="#76A0B7"/>
<stop offset="0.75" stop-color="#7BB2CD"/>
<stop offset="1" stop-color="#7EBEDC"/>
</linearGradient>
<linearGradient id="paint1_linear_3856_649" x1="26.7109" y1="10.3937" x2="4.18311" y2="20.6037" gradientUnits="userSpaceOnUse">
<stop stop-color="#FFF46E" stop-opacity="0"/>
<stop offset="0.19" stop-color="#FFF46F" stop-opacity="0.01"/>
<stop offset="0.32" stop-color="#FFF474" stop-opacity="0.05"/>
<stop offset="0.44" stop-color="#FFF57D" stop-opacity="0.11"/>
<stop offset="0.55" stop-color="#FFF68A" stop-opacity="0.19"/>
<stop offset="0.64" stop-color="#FFF79A" stop-opacity="0.31"/>
<stop offset="0.74" stop-color="#FFF8AE" stop-opacity="0.44"/>
<stop offset="0.83" stop-color="#FFFAC6" stop-opacity="0.61"/>
<stop offset="0.92" stop-color="#FFFCE0" stop-opacity="0.79"/>
<stop offset="1" stop-color="white"/>
</linearGradient>
<linearGradient id="paint2_linear_3856_649" x1="23.3" y1="7.67521" x2="6.02578" y2="24.102" gradientUnits="userSpaceOnUse">
<stop stop-color="#759AB0"/>
<stop offset="0.3" stop-color="#76A0B7"/>
<stop offset="0.75" stop-color="#7BB2CD"/>
<stop offset="1" stop-color="#7EBEDC"/>
</linearGradient>
<linearGradient id="paint3_linear_3856_649" x1="23.3233" y1="7.65096" x2="6.00038" y2="24.124" gradientUnits="userSpaceOnUse">
<stop stop-color="#FFF46E" stop-opacity="0"/>
<stop offset="0.19" stop-color="#FFF46F" stop-opacity="0.01"/>
<stop offset="0.32" stop-color="#FFF474" stop-opacity="0.05"/>
<stop offset="0.44" stop-color="#FFF57D" stop-opacity="0.11"/>
<stop offset="0.55" stop-color="#FFF68A" stop-opacity="0.19"/>
<stop offset="0.64" stop-color="#FFF79A" stop-opacity="0.31"/>
<stop offset="0.74" stop-color="#FFF8AE" stop-opacity="0.44"/>
<stop offset="0.83" stop-color="#FFFAC6" stop-opacity="0.61"/>
<stop offset="0.92" stop-color="#FFFCE0" stop-opacity="0.79"/>
<stop offset="1" stop-color="white"/>
</linearGradient>
<clipPath id="clip0_3856_649">
<rect width="32.0317" height="32.8051" fill="white"/>
</clipPath>
</defs>
</svg>
