<svg width="525" height="210" viewBox="0 0 525 210" fill="none" xmlns="http://www.w3.org/2000/svg">
<path d="M37.9508 165.16C28.0894 162.315 18.8997 158.381 13.0538 149.217C4.56534 135.926 1.92285 121.346 4.32914 105.937C4.92702 102.136 7.39974 98.6319 8.97195 94.9796C9.71008 93.2608 10.6918 91.5643 10.9723 89.7566C12.4042 80.5627 13.5557 71.3318 14.9951 62.1379C15.6815 57.7817 17.5711 54.4035 22.7085 53.8701C25.2919 53.6034 27.7942 52.5514 30.3185 51.7883C38.7553 49.2472 47.6571 47.6914 55.5329 43.9502C94.4691 25.4735 135.125 12.8124 177.73 6.77456C205.306 2.8629 232.964 2.65546 260.71 6.02631C285.378 9.01932 308.304 16.5685 329.252 29.8889C347.248 41.3276 364.985 53.1811 382.929 64.7161C385.254 66.2052 388.051 67.5831 390.723 67.7906C417.259 69.8501 443.728 72.5097 469.703 78.4736C481.04 81.0739 492.046 85.1634 503.199 88.5935C508.034 90.0752 509.79 93.6609 509.502 98.3875C509.237 102.744 508.513 107.07 508.351 111.426C508.285 113.204 508.779 115.242 509.672 116.775C512.728 122.028 516.138 127.073 519.297 132.274C521.586 136.037 521.755 140.008 520.286 144.209C517.504 152.151 513.378 158.64 504.668 161.13C500.549 162.308 496.6 164.093 492.031 165.812C491.787 163.552 491.573 161.996 491.463 160.441C488.931 124.147 451.095 99.9581 418.344 112.226C404.807 117.301 394.606 126.021 387.077 137.904C381.349 146.957 379.762 157.351 380.249 168.042C380.478 173.013 380.426 173.02 375.326 173.035C349.41 173.109 323.502 173.213 297.587 173.242C251.609 173.302 205.631 173.317 159.646 173.354C158.428 173.354 157.202 173.354 155.542 173.354C157.062 156.929 153.704 142.283 143.37 129.71C132.977 117.064 119.573 110.411 103.327 109.1C90.0034 108.026 77.9572 112.115 67.5644 119.665C52.0637 130.918 44.2544 146.831 44.306 166.79C41.8259 166.16 39.8699 165.715 37.936 165.16H37.9508ZM333.769 65.1976C330.965 60.4192 332.522 57.5076 338.043 57.0187C340.553 56.7964 343.085 56.8705 345.594 56.626C346.753 56.5149 347.875 55.9741 349.824 55.3814C347.639 53.7293 346.177 52.5143 344.613 51.4475C322.129 36.2009 298.147 24.1844 271.56 18.0428C253.07 13.7681 234.388 12.5161 215.64 16.3092C209.956 17.4576 207.137 21.7619 205.579 27.0145C203.136 35.2601 204.398 43.4094 207.705 50.9363C210.82 58.0262 215.123 64.6123 219.175 71.2503C219.891 72.4134 221.943 73.3765 223.39 73.384C260.872 73.4951 298.354 73.4728 335.836 73.458C336.715 73.458 337.593 73.258 339.15 73.0654C337.106 70.0872 335.275 67.7461 333.784 65.205L333.769 65.1976ZM185.849 73.4728C192.802 73.4728 192.005 73.7766 192.691 67.5387C193.931 56.2852 194.448 45.0318 190.972 34.0377C187.429 22.8583 180.933 18.1984 169.381 19.1689C146.573 21.0729 124.57 26.1403 104.493 37.6826C97.8718 41.4906 92.0628 46.232 89.5753 54.0775C87.3388 61.1304 92.7861 69.6575 96.6613 72.7394C97.5839 73.4728 99.2595 73.4284 100.588 73.4284C115.026 73.4728 129.464 73.458 143.909 73.458V73.4728C157.889 73.4728 171.869 73.4728 185.849 73.4728Z" stroke="#4FC0FF" stroke-width="6.49" stroke-miterlimit="10"/>
<path d="M393.129 156.018C396.281 139.304 412.941 120.153 436.989 119.946C461.524 119.731 481.727 141.297 481.372 165.367C481.011 189.971 461.487 209.662 437.063 209.573C413.553 210.603 387.143 187.741 393.129 156.01V156.018ZM407.39 166.316C408.6 182.844 421.953 195.32 438.937 194.571C454.63 193.875 466.971 179.858 466.285 163.315C465.694 149.195 454.268 134.593 435.092 136.104C420.935 134.852 406.32 151.639 407.39 166.316Z" fill="#4FC0FF"/>
<path d="M56.6994 165.701C56.7806 139.134 75.78 121.168 100.182 119.931C122.289 118.813 145.784 140.023 145.555 163.56C145.304 189.563 126.689 209.381 101.29 209.581C76.8503 209.766 56.6256 190.119 56.6994 165.701ZM130.556 164.493C130.468 148.683 116.606 135.548 100.935 135.43C84.0396 135.304 71.7941 149.602 71.5653 165.197C71.3291 181.377 85.0361 194.69 101.267 194.586C117.794 194.482 130.645 181.251 130.556 164.493Z" fill="#4FC0FF"/>
<path d="M277.406 70.5613C294.821 70.5613 308.939 56.3916 308.939 38.9124C308.939 21.4332 294.821 7.26352 277.406 7.26352C259.991 7.26352 245.873 21.4332 245.873 38.9124C245.873 56.3916 259.991 70.5613 277.406 70.5613Z" fill="white" stroke="#4FC0FF" stroke-width="6.49" stroke-miterlimit="10"/>
<path d="M257.558 40.1422C260.222 63.9604 299.815 64.9087 297.675 34.8452" stroke="#4FC0FF" stroke-width="4" stroke-miterlimit="10" stroke-linecap="round" stroke-linejoin="round"/>
<path d="M264.566 25.6439L265.305 33.0523" stroke="#4FC0FF" stroke-width="5" stroke-miterlimit="10" stroke-linecap="round"/>
<path d="M286.71 24.1622L287.448 31.5706" stroke="#4FC0FF" stroke-width="5" stroke-miterlimit="10" stroke-linecap="round"/>
<path d="M136.188 71.9541C153.603 71.9541 167.721 57.7844 167.721 40.3052C167.721 22.826 153.603 8.65631 136.188 8.65631C118.773 8.65631 104.655 22.826 104.655 40.3052C104.655 57.7844 118.773 71.9541 136.188 71.9541Z" fill="white" stroke="#4FC0FF" stroke-width="6.49" stroke-miterlimit="10"/>
<path d="M116.348 41.5424C119.012 65.3606 158.605 66.3089 156.465 36.2454" stroke="#4FC0FF" stroke-width="4" stroke-miterlimit="10" stroke-linecap="round"/>
<path d="M122.495 28.1183L124.186 34.4525" stroke="#4FC0FF" stroke-width="4" stroke-miterlimit="10" stroke-linecap="round"/>
<path d="M145.407 22.6731L146.101 32.756" stroke="#4FC0FF" stroke-width="8.65" stroke-miterlimit="10"/>
<path d="M160.539 71.9541C177.954 71.9541 192.071 57.7844 192.071 40.3052C192.071 22.826 177.954 8.65631 160.539 8.65631C143.124 8.65631 129.006 22.826 129.006 40.3052C129.006 57.7844 143.124 71.9541 160.539 71.9541Z" fill="white" stroke="#4FC0FF" stroke-width="6.49" stroke-miterlimit="10"/>
<path d="M140.69 41.5424C143.355 65.3606 182.948 66.3089 180.808 36.2454" stroke="#4FC0FF" stroke-width="4" stroke-miterlimit="10" stroke-linecap="round"/>
<path d="M147.702 27.0441L148.44 34.4525" stroke="#4FC0FF" stroke-width="4" stroke-miterlimit="10" stroke-linecap="round"/>
<path d="M169.847 25.5624L170.585 32.9708" stroke="#4FC0FF" stroke-width="4" stroke-miterlimit="10" stroke-linecap="round"/>
</svg>
